<?xml version="1.0" encoding="utf-8"?><!-- Uploaded to: SVG Repo, www.svgrepo.com, Generator: SVG Repo Mixer Tools -->
<svg fill="#000000" width="800px" height="800px" viewBox="0 0 24 24" id="job" data-name="Flat Color" xmlns="http://www.w3.org/2000/svg" class="icon flat-color"><path id="secondary" d="M16,8H8A1,1,0,0,1,7,7V4A2,2,0,0,1,9,2h6a2,2,0,0,1,2,2V7A1,1,0,0,1,16,8ZM9,6h6V4H9Z" style="fill: rgb(44, 169, 188);"></path><rect id="primary" x="2" y="6" width="20" height="16" rx="2" style="fill: rgb(59, 130, 246);"></rect><path id="secondary-2" data-name="secondary" d="M15,14a1,1,0,0,1-1-1V12H7a1,1,0,0,1,0-2H17a1,1,0,0,1,0,2H16v1A1,1,0,0,1,15,14Z" style="fill: rgb(44, 169, 188);"></path></svg>