<svg xmlns="http://www.w3.org/2000/svg" x="0px" y="0px" width="100" height="100" viewBox="0 0 100 100">
<path fill="#fbb97f" d="M10.707,73.5c-0.092,0-0.16,0.038-0.188,0.077c-0.054,0.074,0.014,0.227,0.167,0.38	C21.331,83.537,34.285,88.5,48,88.5c10.46,0,22.055-3.717,30.079-9.64l0.006-0.005c0.196-0.14,0.405-0.349,0.405-0.812	c0-0.305-0.341-0.54-0.686-0.54c-0.459,0-1.372,0.41-1.819,0.589C67.549,81.469,57.49,83.5,48,83.5	c-13.048,0-25.714-3.409-37.117-9.956C10.819,73.513,10.759,73.5,10.707,73.5z M78.5,73.5c2.5,0,3.594,0.368,4.145,1.135l0,0	C82.77,74.811,83,75.132,83,76c0,1.263-0.49,3.685-2.5,8.5c0.051-0.022,5-4,5-11c0-0.5-0.074-0.823-0.192-1	c-0.069-0.102-1.308-1-5.308-1c-5,0-7.464,1.937-7.5,2C72.534,73.5,75.542,73.5,78.5,73.5z"></path><path fill="#1f212b" d="M48,89c-13.965,0-26.983-5.073-37.648-14.671c-0.431-0.43-0.402-0.818-0.238-1.045	c0.2-0.276,0.631-0.367,0.99-0.188C22.401,79.58,35.149,83,48,83c9.139,0,19.271-1.959,27.8-5.373l0.224-0.092	c0.681-0.281,1.329-0.533,1.781-0.533c0.643,0,1.186,0.477,1.186,1.04c0,0.782-0.463,1.111-0.615,1.22	C70.238,85.269,58.599,89,48,89z M13.018,75.29C23.132,83.63,35.16,88,48,88c10.396,0,21.808-3.656,29.782-9.543	c0.127-0.091,0.208-0.168,0.208-0.415c-0.006,0.016-0.082-0.04-0.186-0.04c-0.291,0-1.04,0.309-1.399,0.457l-0.234,0.096	C67.401,82.066,57.396,84,48,84C35.874,84,23.837,80.996,13.018,75.29z M80.5,85c-0.128,0-0.255-0.049-0.35-0.143	c-0.146-0.144-0.19-0.361-0.111-0.55C82.073,79.433,82.5,77.1,82.5,76c0-0.709-0.164-0.938-0.262-1.074	C81.909,74.469,81.208,74,78.5,74h-6c-0.179,0-0.344-0.096-0.433-0.25c-0.09-0.155-0.09-0.346,0-0.5C72.199,73.021,74.812,71,80,71	c4.021,0,5.494,0.881,5.723,1.221C85.909,72.501,86,72.919,86,73.5c0,7.429-5.245,11.434-5.298,11.457	C80.638,84.986,80.568,85,80.5,85z M74.426,73H78.5c2.58,0,3.856,0.377,4.551,1.343C83.196,74.547,83.5,74.97,83.5,76	c0,1.363-0.529,3.466-1.576,6.268C83.299,80.503,85,77.509,85,73.5c0-0.526-0.091-0.694-0.106-0.72C84.889,72.823,83.811,72,80,72	C77.448,72,75.603,72.514,74.426,73z"></path><path fill="#4e6e91" d="M63.953,69.877c0.183,0.077,0.372,0.118,0.547,0.123c0.246,0.008,0.462-0.054,0.592-0.184	c3.684-3.317,5.99-5.671,7.602-6.99c0.573-0.459,0.235-1.124-0.147-1.602l-0.423-0.546C70.257,58.278,69,55.797,69,50.8V34.2	c0-6.854-0.2-12.774-4.893-17.278C60.288,13.294,53.799,12,49,12c-8.633,0-19.795,2.709-21.986,15.99	C27.014,27.993,27,28.037,27,28.208c0,0.257,0.108,0.62,0.785,0.807L37.988,30c0.395,0,0.52-0.421,0.631-0.995	C39.484,24.563,42.961,22,47.8,22c2.56,0,7.2,1.463,7.2,7v7h-0.8c-6.389,0-13.195,0-18.606,2.319C28.761,41.218,25,46.999,25,54.6	C25,64.243,30.858,70,40,70c11.7,0,17.57-8,17.57-8l1.302,1.852C60.249,66.029,61.165,67.4,63.953,69.877z M44,60	c-5.537,0-7-4.579-7-7c0-11,11.913-11,17-11h1v3.2C55,55.021,51.299,60,44,60z"></path><path fill="#1f212b" d="M64.542,71.001c-0.024,0-0.049-0.001-0.074-0.002c-0.3-0.01-0.61-0.078-0.899-0.199	c-0.103-0.043-0.196-0.102-0.279-0.175c-2.866-2.546-3.821-3.96-5.263-6.239l-0.53-0.754C55.403,65.89,49.606,71,40,71	c-9.869,0-16-6.284-16-16.4c0-8.027,3.979-14.137,11.203-17.201C40.743,35.024,47.475,35,54,35v-6c0-5.932-5.947-6-6.2-6	c-4.443,0-7.433,2.259-8.199,6.196C39.505,29.688,39.251,31,37.987,31l-10.298-0.99c-0.058-0.005-0.114-0.016-0.17-0.031	C26.148,29.602,26,28.614,26,28.208c0-0.163,0.009-0.285,0.029-0.393C27.823,16.972,35.98,11,49,11	c4.991,0,11.763,1.365,15.796,5.197C69.627,20.834,70,26.583,70,34.2v16.6c0,4.616,1.068,6.893,2.912,9.265l0.425,0.548	c0.322,0.402,0.534,0.814,0.619,1.211c0.147,0.69-0.085,1.341-0.638,1.783c-0.819,0.671-1.865,1.658-3.19,2.908	c-1.171,1.104-2.628,2.479-4.367,4.045C65.488,70.834,65.046,71.001,64.542,71.001z M54.2,37c-6.387,0-12.99,0-18.213,2.238	C29.546,41.971,26,47.426,26,54.6C26,63.616,31.233,69,40,69c11.065,0,16.708-7.516,16.764-7.592C56.952,61.151,57.252,61,57.57,61	c0.003,0,0.007,0,0.01,0c0.322,0.003,0.623,0.161,0.809,0.425l1.302,1.852c1.383,2.186,2.224,3.433,4.773,5.716	c0.015,0.003,0.029,0.005,0.043,0.007c1.704-1.539,3.112-2.867,4.248-3.939c1.303-1.228,2.341-2.208,3.203-2.923	c-0.033-0.065-0.091-0.16-0.192-0.287l-0.434-0.559C69.275,58.646,68,55.967,68,50.8V34.2c0-7.118-0.329-12.472-4.585-16.557	C59.812,14.221,53.605,13,49,13c-8.412,0-18.865,2.613-20.979,15.033l9.588,0.926c0.009-0.042,0.019-0.09,0.029-0.145	C38.591,23.921,42.39,21,47.8,21c2.836,0,8.2,1.672,8.2,8v7c0,0.553-0.447,1-1,1H54.2z M44,61c-6.328,0-8-5.233-8-8	c0-12,13.077-12,18-12h1c0.553,0,1,0.447,1,1v3.2C56,58.259,49.475,61,44,61z M54,43c-7.912,0-16,1.188-16,10c0,0.245,0.068,6,6,6	c6.729,0,10-4.514,10-13.8V43z"></path><path fill="#1f212b" d="M65.728,59c-0.203,0-0.394-0.124-0.469-0.325c-0.344-0.923-0.625-1.959-0.837-3.082	c-0.052-0.271,0.127-0.533,0.398-0.584c0.268-0.05,0.533,0.126,0.584,0.398c0.201,1.067,0.468,2.049,0.792,2.918	c0.097,0.259-0.035,0.547-0.294,0.644C65.845,58.99,65.785,59,65.728,59z"></path><path fill="#1f212b" d="M64.521,52c-0.271,0-0.493-0.216-0.5-0.487l-0.009-0.26C64.006,51.105,64,50.958,64,50.8V34.2	c0-0.945-0.007-1.838-0.024-2.689c-0.006-0.276,0.214-0.505,0.489-0.511c0.004,0,0.008,0,0.011,0c0.271,0,0.494,0.217,0.5,0.489	C64.993,32.349,65,33.247,65,34.2v16.6c0,0.144,0.006,0.277,0.012,0.411l0.01,0.276c0.007,0.276-0.212,0.506-0.487,0.513	C64.529,52,64.525,52,64.521,52z"></path><path fill="#1f212b" d="M67.209,62c-0.167,0-0.33-0.084-0.425-0.236c-0.204-0.329-0.402-0.672-0.592-1.029	c-0.13-0.244-0.037-0.547,0.207-0.676c0.242-0.131,0.546-0.036,0.676,0.207c0.18,0.338,0.366,0.661,0.559,0.971	c0.146,0.234,0.073,0.543-0.161,0.688C67.391,61.976,67.3,62,67.209,62z"></path>
</svg>